<svg version="1.1" id="Layer_1" xmlns="http://www.w3.org/2000/svg" xmlns:xlink="http://www.w3.org/1999/xlink" x="0px" y="0px"
	 width="100%" viewBox="0 0 1200 1200" enable-background="new 0 0 1200 1200" xml:space="preserve">
<path fill="#00477F" opacity="1.000000" stroke="none" 
	d="
M556.000000,1.000006 
	C585.687561,1.000000 615.375122,1.000000 645.540527,1.419448 
	C647.199890,2.222490 648.357361,2.821765 649.566650,2.957023 
	C665.325684,4.719576 681.244507,5.560724 696.819458,8.337512 
	C718.237061,12.155971 739.524292,16.912983 760.635193,22.195696 
	C792.270264,30.111914 822.762573,41.575459 852.309204,55.259743 
	C885.364502,70.569008 917.406250,87.930397 946.776672,109.609962 
	C966.684021,124.304428 986.147095,139.686798 1004.935730,155.780746 
	C1017.632324,166.656342 1029.211670,178.935318 1040.559082,191.260239 
	C1053.102661,204.884476 1065.139526,219.010910 1076.813354,233.392532 
	C1099.187256,260.956543 1117.913330,290.987152 1134.585083,322.259308 
	C1149.784668,350.769867 1162.471558,380.463440 1172.408936,411.191284 
	C1178.747070,430.789825 1184.357910,450.712555 1188.746582,470.827728 
	C1193.169434,491.100098 1195.657593,511.793518 1199.089233,532.286438 
	C1199.254028,533.270081 1200.341919,534.098999 1201.000000,535.000000 
	C1201.000000,578.687561 1201.000000,622.375122 1200.585571,666.534119 
	C1199.819702,667.520325 1199.231079,668.001038 1199.151489,668.554810 
	C1197.416016,680.644104 1195.899414,692.767029 1194.013672,704.832275 
	C1189.928833,730.967651 1183.737915,756.649841 1175.459961,781.739990 
	C1169.302002,800.403931 1162.804199,819.056091 1154.854248,837.003113 
	C1144.946777,859.369202 1134.271973,881.501099 1122.279297,902.805664 
	C1111.930054,921.190552 1099.975586,938.794678 1087.441772,955.793518 
	C1074.018311,973.999023 1060.045166,991.994629 1044.563965,1008.436035 
	C1026.713135,1027.394043 1007.491699,1045.172974 987.843933,1062.291504 
	C972.697144,1075.488403 956.434448,1087.549072 939.842041,1098.908691 
	C914.445374,1116.295776 887.983765,1132.044312 859.779602,1144.583374 
	C843.318726,1151.901367 826.946594,1159.541016 810.066040,1165.765259 
	C783.420166,1175.590210 756.244995,1183.977417 728.275757,1189.210693 
	C708.186218,1192.969604 687.917114,1195.766602 667.744019,1199.089233 
	C666.751343,1199.252808 665.911194,1200.341919 665.000000,1201.000000 
	C622.979126,1201.000000 580.958191,1201.000000 538.468994,1200.588135 
	C537.487488,1199.823364 537.008179,1199.231445 536.455933,1199.152832 
	C524.198792,1197.409180 511.778687,1196.448364 499.702301,1193.872559 
	C474.724609,1188.545044 449.701630,1183.176758 425.122742,1176.303833 
	C400.632263,1169.455566 376.655151,1160.675415 353.818207,1149.320435 
	C333.403320,1139.169800 313.012299,1128.880737 293.233978,1117.563599 
	C269.680969,1104.086304 247.340134,1088.632935 226.523834,1071.154785 
	C211.833344,1058.820190 196.887299,1046.677490 183.232880,1033.251465 
	C168.245087,1018.514465 154.177109,1002.771729 140.515747,986.777588 
	C129.055557,973.360718 118.152039,959.373169 108.066376,944.896790 
	C85.699158,912.792053 66.465271,878.867432 50.890152,842.888184 
	C39.454758,816.471924 29.503685,789.556641 22.017544,761.763550 
	C12.471023,726.321167 5.420644,690.423462 2.897798,653.725403 
	C2.832665,652.777954 1.657496,651.906738 1.000003,651.000000 
	C1.000000,618.645752 1.000000,586.291565 1.418528,553.462341 
	C2.205739,552.305176 2.826668,551.650635 2.905038,550.936584 
	C3.968261,541.248779 4.826892,531.537354 5.987914,521.861877 
	C9.020116,496.592865 14.402966,471.801819 20.760809,447.165344 
	C29.417479,413.621002 41.170235,381.192719 55.729031,349.845154 
	C70.441841,318.166046 87.716957,287.904877 107.780739,259.197052 
	C125.072845,234.454987 143.669556,210.762299 164.678574,189.211578 
	C182.847000,170.574722 201.934402,152.666550 221.959930,136.057098 
	C239.825180,121.239441 259.207092,108.159714 278.501770,95.178215 
	C304.897247,77.419281 333.141998,62.913784 362.337616,50.278114 
	C390.130859,38.249420 418.499634,27.716621 447.958984,20.702347 
	C470.556396,15.321910 493.456360,11.118796 516.344971,7.092635 
	C528.520691,4.950895 540.962585,4.334844 553.269226,2.900699 
	C554.240112,2.787554 555.092529,1.657475 556.000000,1.000006 
M385.521912,1127.002930 
	C548.114746,1190.574219 707.680115,1183.867310 864.196472,1106.382446 
	C1016.899048,1022.021423 1115.663818,896.398743 1155.885620,725.994995 
	C1122.287842,842.845459 1056.469360,936.686646 954.565613,1004.053040 
	C852.878906,1071.276001 741.383545,1096.554321 620.054077,1080.334961 
	C651.558044,911.286499 682.854919,743.349548 714.249390,574.888794 
	C773.989014,574.888794 833.233215,574.888794 892.413513,574.888794 
	C894.288452,565.064270 896.044006,555.865356 897.964172,545.804138 
	C667.063660,545.804138 436.714233,545.804138 206.013611,545.804138 
	C206.752075,540.432434 207.673584,535.895081 207.904358,531.322754 
	C208.070389,528.033264 209.322220,526.824341 212.444321,526.993286 
	C214.438232,527.101135 216.443115,527.002686 218.443069,527.002686 
	C442.940338,527.002075 667.437622,527.002258 891.934875,527.001099 
	C893.934814,527.001099 895.986267,527.251587 897.915222,526.877441 
	C899.068237,526.653748 900.741333,525.606079 900.964722,524.645935 
	C902.885071,516.393005 904.527954,508.075562 906.453735,498.815247 
	C675.031250,498.815247 444.699890,498.815247 213.786194,498.815247 
	C214.968430,494.287018 215.947433,490.646637 216.867310,486.991425 
	C218.874924,479.013977 218.862640,479.009308 227.130997,479.009308 
	C451.628265,479.009003 676.125549,479.009125 900.622803,479.008240 
	C902.622742,479.008240 904.718018,479.360718 906.591675,478.871002 
	C908.021851,478.497223 910.042847,477.240448 910.304138,476.048370 
	C912.011169,468.260651 913.309998,460.383453 914.873962,451.813843 
	C685.206604,451.813843 456.317749,451.813843 226.567291,451.813843 
	C228.300385,446.836700 230.189102,442.757019 231.099197,438.469604 
	C232.326172,432.689240 235.656006,431.876831 240.983032,431.880157 
	C464.146912,432.018860 687.310852,431.999084 910.474792,431.999054 
	C913.099915,431.999054 915.724976,431.999054 918.546326,431.999054 
	C919.444153,426.904694 920.251709,422.377655 921.037659,417.846893 
	C921.809631,413.396271 922.559631,408.941833 923.443787,403.759155 
	C696.959412,403.759155 471.454712,403.759155 245.427689,403.759155 
	C247.325897,399.444336 249.208817,395.926910 250.436203,392.193939 
	C252.233780,386.726746 255.317749,384.837616 261.368469,384.842834 
	C480.532318,385.030029 699.696350,385.000061 918.860352,384.999664 
	C926.659119,384.999664 926.648132,384.995209 928.265564,377.588409 
	C928.722595,375.495575 929.390015,373.442108 929.741150,371.333984 
	C930.559814,366.419037 931.244934,361.481903 932.097656,355.796478 
	C711.238525,355.796478 491.375519,355.796478 270.589600,355.796478 
	C301.844635,300.991943 342.395203,255.668320 391.543060,218.126663 
	C475.821259,153.750610 571.373962,119.872711 677.261902,118.375771 
	C791.720459,116.757652 895.377075,149.977219 985.568298,221.831940 
	C1075.385864,293.388916 1133.772583,384.925903 1159.470947,497.133881 
	C1159.801147,495.792023 1160.026367,494.590179 1159.767334,493.503754 
	C1155.905762,477.302704 1152.156860,461.071686 1148.029541,444.937744 
	C1141.292847,418.604004 1131.766235,393.205414 1120.130493,368.709991 
	C1111.052490,349.599213 1101.167114,330.814667 1090.626221,312.468018 
	C1068.683472,274.276733 1041.617188,239.814133 1011.282532,207.978958 
	C1000.065125,196.206726 988.127075,185.026657 975.748291,174.479645 
	C960.427734,161.426163 944.753296,148.693069 928.436646,136.923889 
	C896.798096,114.103104 862.797363,95.308014 826.910095,79.921318 
	C801.512085,69.031906 775.478333,60.036911 748.772949,53.013130 
	C724.323303,46.582626 699.618408,41.340813 674.403442,38.968277 
	C655.146729,37.156361 635.883850,34.715584 616.583191,34.256111 
	C596.366821,33.774837 576.062683,34.757034 555.870361,36.157787 
	C538.263611,37.379173 520.610352,39.230652 503.241241,42.296879 
	C469.709290,48.216377 436.899109,56.985920 404.868164,68.830879 
	C371.677612,81.104645 339.946411,96.305313 309.586121,114.313324 
	C276.507843,133.933472 245.728363,156.865829 217.643707,183.116470 
	C197.503586,201.941406 178.306412,221.750641 160.950409,243.326172 
	C140.899979,268.251190 122.712517,294.393799 107.014252,322.219543 
	C89.241356,353.722656 74.251198,386.544495 62.973763,420.948761 
	C53.866821,448.731415 45.884155,476.851746 41.972076,505.914215 
	C39.044132,527.665649 36.205132,549.447876 34.194603,571.296204 
	C33.153656,582.608215 33.867012,594.095642 34.030521,605.500366 
	C34.190048,616.627380 34.227585,627.783630 35.091938,638.866699 
	C36.414932,655.830566 37.674992,672.854858 40.269791,689.651489 
	C44.604725,717.712158 51.154301,745.342957 59.753441,772.430115 
	C69.829735,804.170288 81.973793,835.115601 98.211929,864.234009 
	C108.911095,883.419861 120.132622,902.368042 132.125259,920.767578 
	C155.561493,956.724243 183.441177,989.038452 215.353455,1017.757996 
	C228.882034,1029.933105 242.597397,1041.967773 256.930481,1053.167114 
	C283.459564,1073.896240 312.011993,1091.614868 342.001526,1106.896606 
	C356.008575,1114.034180 370.495270,1120.230469 385.521912,1127.002930 
M704.163757,885.822693 
	C704.944580,882.712708 705.725403,879.602722 706.862244,875.074524 
	C707.890808,877.874207 708.630798,879.289551 708.928345,880.792542 
	C711.328857,892.917236 713.784363,905.034424 715.892029,917.211182 
	C716.424072,920.285583 717.781433,921.069702 720.501465,921.020264 
	C724.997620,920.938416 729.502747,920.854126 733.992004,921.049316 
	C737.406738,921.197754 738.436401,919.591553 739.073425,916.460388 
	C743.805237,893.202454 748.746765,869.987244 753.594849,846.752869 
	C754.924316,840.381653 756.160278,833.990967 757.555847,827.026794 
	C750.981384,827.026794 745.331238,826.807434 739.722107,827.189575 
	C738.410828,827.278931 736.443665,829.229919 736.131958,830.626526 
	C734.195801,839.302856 732.689758,848.074158 730.950378,856.795837 
	C729.885681,862.134583 728.659241,867.441162 727.206970,874.138672 
	C725.978333,871.867432 725.291260,871.091064 725.125000,870.215759 
	C722.695618,857.426819 720.277954,844.635010 717.997314,831.819031 
	C717.379089,828.344910 715.982910,826.570129 712.114441,826.930908 
	C708.481262,827.269775 704.768127,827.263306 701.133240,826.933472 
	C697.109192,826.568298 695.712097,828.353088 694.957214,832.061829 
	C691.206299,850.489563 687.201355,868.865417 683.324097,887.267578 
	C680.927063,898.644287 678.598328,910.035461 676.125427,921.967651 
	C682.585083,921.967651 688.404480,922.158325 694.193054,921.820190 
	C695.479248,921.745056 697.478699,919.983154 697.754578,918.698303 
	C700.038818,908.059998 701.994995,897.351257 704.163757,885.822693 
M786.655212,923.681824 
	C790.409241,922.808960 794.129395,921.467163 797.926636,921.193359 
	C801.823792,920.912354 805.819885,922.044006 809.723633,921.793152 
	C811.203491,921.698059 813.446228,919.686035 813.806763,918.180298 
	C816.301208,907.762024 818.409973,897.250916 820.602539,886.761169 
	C821.792297,881.069214 822.903381,875.360901 824.171631,869.054871 
	C813.604370,869.054871 803.970215,869.007263 794.338318,869.133057 
	C793.438416,869.144836 791.948486,870.105103 791.759460,870.876648 
	C790.601868,875.601624 789.740417,880.399170 788.685120,885.645752 
	C792.877686,885.905640 796.235168,886.113831 799.775208,886.333252 
	C798.352844,893.128113 797.071472,899.616455 791.688599,903.451538 
	C789.092834,905.300903 784.794556,905.969971 781.575378,905.408081 
	C778.081543,904.798218 777.675110,900.955444 777.993103,897.594421 
	C778.241943,894.964478 778.181396,892.281189 778.680847,889.703491 
	C780.375671,880.955994 781.994751,872.178589 784.165039,863.543945 
	C785.523743,858.138306 787.506897,852.828308 789.786194,847.733154 
	C791.951233,842.893188 797.434448,841.196838 803.354919,843.145874 
	C808.102478,844.708740 806.906555,848.942078 806.921265,852.435425 
	C806.929321,854.348877 806.358154,856.264832 805.915527,858.999084 
	C809.040955,858.999084 811.659912,858.998474 814.278870,858.999207 
	C826.658569,859.002686 826.658691,859.002808 828.820923,847.227234 
	C828.851013,847.063538 828.900208,846.893494 828.883118,846.732483 
	C828.180908,840.116821 827.269409,833.799072 821.124878,829.386230 
	C814.648682,824.735229 807.471130,824.965149 800.170776,824.991699 
	C784.238892,825.049622 773.362244,832.965027 767.852356,847.976501 
	C761.672668,864.812561 758.090881,882.191589 756.048279,899.944031 
	C754.624207,912.321167 759.964783,920.320618 772.009521,922.892090 
	C776.480286,923.846619 781.208801,923.593445 786.655212,923.681824 
M872.440308,862.000000 
	C869.154297,862.000000 865.868286,862.000000 861.570007,862.000000 
	C864.058838,849.993713 866.377808,838.806885 868.824219,827.005249 
	C863.065186,827.005249 857.760010,827.142822 852.466125,826.956116 
	C849.034546,826.835205 847.622498,828.028870 846.897644,831.566223 
	C842.197632,854.501343 837.200256,877.375366 832.324280,900.274536 
	C830.833191,907.277161 829.417358,914.295837 827.889160,921.683838 
	C835.254333,921.683838 841.837952,921.683838 848.553589,921.683838 
	C851.570251,908.097351 854.527039,894.780701 857.512878,881.333008 
	C864.024353,881.333008 870.272278,881.333008 876.995300,881.333008 
	C874.238647,894.562378 871.566895,907.384705 868.799683,920.664978 
	C876.082947,920.664978 882.665344,920.664978 889.672058,920.664978 
	C896.244446,889.626831 902.796448,858.684570 909.496521,827.043396 
	C902.564331,827.043396 896.919250,826.851318 891.307800,827.200500 
	C890.142761,827.273071 888.452698,829.188110 888.111450,830.534546 
	C886.046204,838.682678 883.738098,846.837280 882.635193,855.139038 
	C881.801514,861.413879 878.797302,862.847473 872.440308,862.000000 
M813.068115,747.740173 
	C813.740601,747.132874 814.313782,746.226807 815.101196,745.965088 
	C822.416321,743.533020 829.061890,739.785767 832.409607,732.728455 
	C835.914001,725.340820 839.045715,717.556458 840.787292,709.605347 
	C843.251648,698.354492 844.357666,686.800659 845.919678,675.359253 
	C847.179688,666.129822 842.529785,658.813721 833.673279,655.745422 
	C815.062561,649.297852 796.515808,658.617920 789.777771,677.189697 
	C784.158203,692.678589 780.724548,708.578003 779.097900,724.897217 
	C778.308838,732.813477 780.804688,741.887146 790.632324,745.020630 
	C793.487976,745.931152 794.346619,747.859436 793.623108,750.833862 
	C792.621582,754.951233 791.935730,759.145447 790.979309,763.992981 
	C795.985901,763.992981 800.454346,763.862305 804.910583,764.038513 
	C807.914001,764.157349 809.462646,763.122253 810.049988,760.057190 
	C810.794128,756.173401 811.976013,752.373474 813.068115,747.740173 
M719.199097,744.996338 
	C723.043640,745.652710 724.337402,743.596741 725.053467,740.143433 
	C727.322021,729.202576 729.860107,718.317627 732.310303,707.337891 
	C738.330444,707.337891 743.912659,707.337891 750.130798,707.337891 
	C747.556213,720.019043 745.069153,732.269043 742.485474,744.994995 
	C748.259644,744.994995 752.914307,744.846130 757.554199,745.043884 
	C761.015564,745.191406 762.394226,743.911316 763.098450,740.404724 
	C767.283264,719.567627 771.754089,698.787964 776.132324,677.989807 
	C777.567078,671.174194 779.012390,664.360779 780.567932,657.001953 
	C774.998535,657.001953 770.500427,657.278381 766.054138,656.917358 
	C762.270386,656.610107 760.717712,658.221252 760.013794,661.635864 
	C758.417358,669.379883 756.762573,677.115662 754.890259,684.795898 
	C754.523315,686.301086 753.152832,688.635681 752.099426,688.717773 
	C746.886902,689.124146 741.625366,688.902832 736.044006,688.902832 
	C738.303711,677.932190 740.402222,667.744141 742.614014,657.006226 
	C736.685425,657.006226 731.871826,657.150757 727.071960,656.956909 
	C723.705322,656.820862 722.576721,658.300354 721.926819,661.472168 
	C717.593018,682.622192 713.036926,703.726624 708.567749,724.848938 
	C707.188965,731.365112 705.855347,737.890930 704.379395,744.998169 
	C709.658569,744.998169 713.962463,744.998169 719.199097,744.996338 
M955.499817,843.999634 
	C959.662964,843.994080 963.845886,844.215759 967.978271,843.856201 
	C969.370728,843.734985 971.437073,842.386047 971.813110,841.170593 
	C973.163330,836.806580 973.922302,832.259705 974.993896,827.375854 
	C957.496399,827.375854 940.462219,827.375854 923.293274,827.375854 
	C916.619263,858.916870 910.015869,890.124329 903.277710,921.968872 
	C920.216248,921.968872 936.171570,922.014282 952.125000,921.864197 
	C953.163757,921.854370 954.829895,920.519897 955.110474,919.500427 
	C956.450989,914.630920 957.413574,909.657410 958.721680,903.771240 
	C947.998901,903.771240 938.171143,903.771240 928.059265,903.771240 
	C929.507568,896.480713 930.836548,890.033447 932.051331,883.564697 
	C932.588867,880.702454 934.268921,879.914795 936.995239,879.963684 
	C943.820557,880.086060 950.652344,880.095215 957.474915,879.907410 
	C958.915344,879.867737 961.356506,879.049072 961.580688,878.151123 
	C962.785889,873.322815 963.436584,868.356079 964.416382,862.632996 
	C954.702209,862.632996 946.000549,862.632996 936.808716,862.632996 
	C938.107971,856.115967 939.258179,850.346741 940.523560,843.999634 
	C945.260742,843.999634 949.883057,843.999634 955.499817,843.999634 
M885.800659,724.120239 
	C884.243103,727.736877 881.985962,730.733398 877.582031,729.710815 
	C873.077881,728.664917 872.342407,724.903931 873.046143,721.028381 
	C875.284180,708.703186 877.579102,696.383789 880.184082,684.132690 
	C880.856628,680.969788 882.050293,677.319153 884.269531,675.247498 
	C886.618774,673.054382 890.475830,672.476624 893.674377,671.193359 
	C894.448730,673.482727 895.410278,675.730347 895.932312,678.075867 
	C896.286255,679.666199 895.709229,681.481323 896.141296,683.030640 
	C896.451111,684.141602 897.702271,685.764404 898.600952,685.809265 
	C903.868652,686.072510 909.156250,685.938538 914.546082,685.938538 
	C914.809143,683.847229 914.898621,682.367065 915.191101,680.928162 
	C918.306824,665.603088 913.163879,657.010071 898.388000,654.368958 
	C885.620728,652.086853 868.674683,658.887390 863.857605,674.033386 
	C858.740417,690.122803 855.086426,706.445251 852.487732,723.180298 
	C850.313477,737.182007 859.521240,746.416931 871.667725,746.937073 
	C889.255249,747.690308 900.079346,740.164368 905.997803,723.459656 
	C907.336060,719.682312 908.272400,715.762573 909.541260,711.401184 
	C906.978699,711.215271 905.516296,711.038757 904.051270,711.013794 
	C890.558655,710.783875 890.558533,710.791565 885.800659,724.120239 
M950.490234,817.052673 
	C951.993286,817.705383 953.627686,818.162354 954.965820,819.060791 
	C956.620178,820.171509 957.923828,822.607544 959.562561,822.786194 
	C964.282471,823.300659 969.094727,822.967773 975.211548,822.967773 
	C970.787292,815.610046 966.987854,809.148804 962.973938,802.823669 
	C962.544373,802.146667 960.876221,802.177429 959.762756,802.025146 
	C951.729980,800.926453 944.805969,802.437683 939.728882,809.592346 
	C937.969849,812.071228 935.039185,813.695129 932.766846,815.840088 
	C930.675293,817.814392 928.749146,819.963989 926.750122,822.036316 
	C935.094788,821.967468 943.978333,826.374084 950.490234,817.052673 
M915.950134,932.360107 
	C915.338196,935.350891 914.726257,938.341675 914.068542,941.556213 
	C920.943237,941.556213 927.282471,941.556213 933.624390,941.556213 
	C934.684387,935.918213 935.663574,930.709839 936.664001,925.388672 
	C929.828796,925.388672 923.617432,925.388672 917.419556,925.388672 
	C916.889404,927.676941 916.444702,929.596191 915.950134,932.360107 
z"/>

<path fill="#FEFEFE" opacity="1.000000" stroke="none" 
	d="
M555.531372,1.000006 
	C555.092529,1.657475 554.240112,2.787554 553.269226,2.900699 
	C540.962585,4.334844 528.520691,4.950895 516.344971,7.092635 
	C493.456360,11.118796 470.556396,15.321910 447.958984,20.702347 
	C418.499634,27.716621 390.130859,38.249420 362.337616,50.278114 
	C333.141998,62.913784 304.897247,77.419281 278.501770,95.178215 
	C259.207092,108.159714 239.825180,121.239441 221.959930,136.057098 
	C201.934402,152.666550 182.847000,170.574722 164.678574,189.211578 
	C143.669556,210.762299 125.072845,234.454987 107.780739,259.197052 
	C87.716957,287.904877 70.441841,318.166046 55.729031,349.845154 
	C41.170235,381.192719 29.417479,413.621002 20.760809,447.165344 
	C14.402966,471.801819 9.020116,496.592865 5.987914,521.861877 
	C4.826892,531.537354 3.968261,541.248779 2.905038,550.936584 
	C2.826668,551.650635 2.205739,552.305176 1.418528,552.993652 
	C1.000000,369.072723 1.000000,185.145432 1.000000,1.000000 
	C185.687500,1.000000 370.375092,1.000000 555.531372,1.000006 
z"/>

<path fill="#FEFEFE" opacity="1.000000" stroke="none" 
	d="
M1.000003,651.468628 
	C1.657496,651.906738 2.832665,652.777954 2.897798,653.725403 
	C5.420644,690.423462 12.471023,726.321167 22.017544,761.763550 
	C29.503685,789.556641 39.454758,816.471924 50.890152,842.888184 
	C66.465271,878.867432 85.699158,912.792053 108.066376,944.896790 
	C118.152039,959.373169 129.055557,973.360718 140.515747,986.777588 
	C154.177109,1002.771729 168.245087,1018.514465 183.232880,1033.251465 
	C196.887299,1046.677490 211.833344,1058.820190 226.523834,1071.154785 
	C247.340134,1088.632935 269.680969,1104.086304 293.233978,1117.563599 
	C313.012299,1128.880737 333.403320,1139.169800 353.818207,1149.320435 
	C376.655151,1160.675415 400.632263,1169.455566 425.122742,1176.303833 
	C449.701630,1183.176758 474.724609,1188.545044 499.702301,1193.872559 
	C511.778687,1196.448364 524.198792,1197.409180 536.455933,1199.152832 
	C537.008179,1199.231445 537.487488,1199.823364 538.000366,1200.588135 
	C359.072052,1201.000000 180.144073,1201.000000 1.000000,1201.000000 
	C1.000000,1017.979187 1.000000,834.958252 1.000003,651.468628 
z"/>

<path fill="#FEFEFE" opacity="1.000000" stroke="none" 
	d="
M1201.000000,534.531372 
	C1200.341919,534.098999 1199.254028,533.270081 1199.089233,532.286438 
	C1195.657593,511.793518 1193.169434,491.100098 1188.746582,470.827728 
	C1184.357910,450.712555 1178.747070,430.789825 1172.408936,411.191284 
	C1162.471558,380.463440 1149.784668,350.769867 1134.585083,322.259308 
	C1117.913330,290.987152 1099.187256,260.956543 1076.813354,233.392532 
	C1065.139526,219.010910 1053.102661,204.884476 1040.559082,191.260239 
	C1029.211670,178.935318 1017.632324,166.656342 1004.935730,155.780746 
	C986.147095,139.686798 966.684021,124.304428 946.776672,109.609962 
	C917.406250,87.930397 885.364502,70.569008 852.309204,55.259743 
	C822.762573,41.575459 792.270264,30.111914 760.635193,22.195696 
	C739.524292,16.912983 718.237061,12.155971 696.819458,8.337512 
	C681.244507,5.560724 665.325684,4.719576 649.566650,2.957023 
	C648.357361,2.821765 647.199890,2.222490 646.009155,1.419448 
	C830.925720,1.000000 1015.851379,1.000000 1201.000000,1.000000 
	C1201.000000,178.687500 1201.000000,356.375092 1201.000000,534.531372 
z"/>

<path fill="#FEFEFE" opacity="1.000000" stroke="none" 
	d="
M665.468628,1201.000000 
	C665.911194,1200.341919 666.751343,1199.252808 667.744019,1199.089233 
	C687.917114,1195.766602 708.186218,1192.969604 728.275757,1189.210693 
	C756.244995,1183.977417 783.420166,1175.590210 810.066040,1165.765259 
	C826.946594,1159.541016 843.318726,1151.901367 859.779602,1144.583374 
	C887.983765,1132.044312 914.445374,1116.295776 939.842041,1098.908691 
	C956.434448,1087.549072 972.697144,1075.488403 987.843933,1062.291504 
	C1007.491699,1045.172974 1026.713135,1027.394043 1044.563965,1008.436035 
	C1060.045166,991.994629 1074.018311,973.999023 1087.441772,955.793518 
	C1099.975586,938.794678 1111.930054,921.190552 1122.279297,902.805664 
	C1134.271973,881.501099 1144.946777,859.369202 1154.854248,837.003113 
	C1162.804199,819.056091 1169.302002,800.403931 1175.459961,781.739990 
	C1183.737915,756.649841 1189.928833,730.967651 1194.013672,704.832275 
	C1195.899414,692.767029 1197.416016,680.644104 1199.151489,668.554810 
	C1199.231079,668.001038 1199.819702,667.520325 1200.585571,667.002808 
	C1201.000000,844.927246 1201.000000,1022.854492 1201.000000,1201.000000 
	C1022.645813,1201.000000 844.291565,1201.000000 665.468628,1201.000000 
z"/>

<path fill="#FEFEFE" opacity="1.000000" stroke="none" 
	d="
M385.143250,1126.928223 
	C370.495270,1120.230469 356.008575,1114.034180 342.001526,1106.896606 
	C312.011993,1091.614868 283.459564,1073.896240 256.930481,1053.167114 
	C242.597397,1041.967773 228.882034,1029.933105 215.353455,1017.757996 
	C183.441177,989.038452 155.561493,956.724243 132.125259,920.767578 
	C120.132622,902.368042 108.911095,883.419861 98.211929,864.234009 
	C81.973793,835.115601 69.829735,804.170288 59.753441,772.430115 
	C51.154301,745.342957 44.604725,717.712158 40.269791,689.651489 
	C37.674992,672.854858 36.414932,655.830566 35.091938,638.866699 
	C34.227585,627.783630 34.190048,616.627380 34.030521,605.500366 
	C33.867012,594.095642 33.153656,582.608215 34.194603,571.296204 
	C36.205132,549.447876 39.044132,527.665649 41.972076,505.914215 
	C45.884155,476.851746 53.866821,448.731415 62.973763,420.948761 
	C74.251198,386.544495 89.241356,353.722656 107.014252,322.219543 
	C122.712517,294.393799 140.899979,268.251190 160.950409,243.326172 
	C178.306412,221.750641 197.503586,201.941406 217.643707,183.116470 
	C245.728363,156.865829 276.507843,133.933472 309.586121,114.313324 
	C339.946411,96.305313 371.677612,81.104645 404.868164,68.830879 
	C436.899109,56.985920 469.709290,48.216377 503.241241,42.296879 
	C520.610352,39.230652 538.263611,37.379173 555.870361,36.157787 
	C576.062683,34.757034 596.366821,33.774837 616.583191,34.256111 
	C635.883850,34.715584 655.146729,37.156361 674.403442,38.968277 
	C699.618408,41.340813 724.323303,46.582626 748.772949,53.013130 
	C775.478333,60.036911 801.512085,69.031906 826.910095,79.921318 
	C862.797363,95.308014 896.798096,114.103104 928.436646,136.923889 
	C944.753296,148.693069 960.427734,161.426163 975.748291,174.479645 
	C988.127075,185.026657 1000.065125,196.206726 1011.282532,207.978958 
	C1041.617188,239.814133 1068.683472,274.276733 1090.626221,312.468018 
	C1101.167114,330.814667 1111.052490,349.599213 1120.130493,368.709991 
	C1131.766235,393.205414 1141.292847,418.604004 1148.029541,444.937744 
	C1152.156860,461.071686 1155.905762,477.302704 1159.767334,493.503754 
	C1160.026367,494.590179 1159.801147,495.792023 1159.470947,497.133881 
	C1133.772583,384.925903 1075.385864,293.388916 985.568298,221.831940 
	C895.377075,149.977219 791.720459,116.757652 677.261902,118.375771 
	C571.373962,119.872711 475.821259,153.750610 391.543060,218.126663 
	C342.395203,255.668320 301.844635,300.991943 270.589600,355.796478 
	C491.375519,355.796478 711.238525,355.796478 932.097656,355.796478 
	C931.244934,361.481903 930.559814,366.419037 929.741150,371.333984 
	C929.390015,373.442108 928.722595,375.495575 928.265564,377.588409 
	C926.648132,384.995209 926.659119,384.999664 918.860352,384.999664 
	C699.696350,385.000061 480.532318,385.030029 261.368469,384.842834 
	C255.317749,384.837616 252.233780,386.726746 250.436203,392.193939 
	C249.208817,395.926910 247.325897,399.444336 245.427689,403.759155 
	C471.454712,403.759155 696.959412,403.759155 923.443787,403.759155 
	C922.559631,408.941833 921.809631,413.396271 921.037659,417.846893 
	C920.251709,422.377655 919.444153,426.904694 918.546326,431.999054 
	C915.724976,431.999054 913.099915,431.999054 910.474792,431.999054 
	C687.310852,431.999084 464.146912,432.018860 240.983032,431.880157 
	C235.656006,431.876831 232.326172,432.689240 231.099197,438.469604 
	C230.189102,442.757019 228.300385,446.836700 226.567291,451.813843 
	C456.317749,451.813843 685.206604,451.813843 914.873962,451.813843 
	C913.309998,460.383453 912.011169,468.260651 910.304138,476.048370 
	C910.042847,477.240448 908.021851,478.497223 906.591675,478.871002 
	C904.718018,479.360718 902.622742,479.008240 900.622803,479.008240 
	C676.125549,479.009125 451.628265,479.009003 227.130997,479.009308 
	C218.862640,479.009308 218.874924,479.013977 216.867310,486.991425 
	C215.947433,490.646637 214.968430,494.287018 213.786194,498.815247 
	C444.699890,498.815247 675.031250,498.815247 906.453735,498.815247 
	C904.527954,508.075562 902.885071,516.393005 900.964722,524.645935 
	C900.741333,525.606079 899.068237,526.653748 897.915222,526.877441 
	C895.986267,527.251587 893.934814,527.001099 891.934875,527.001099 
	C667.437622,527.002258 442.940338,527.002075 218.443069,527.002686 
	C216.443115,527.002686 214.438232,527.101135 212.444321,526.993286 
	C209.322220,526.824341 208.070389,528.033264 207.904358,531.322754 
	C207.673584,535.895081 206.752075,540.432434 206.013611,545.804138 
	C436.714233,545.804138 667.063660,545.804138 897.964172,545.804138 
	C896.044006,555.865356 894.288452,565.064270 892.413513,574.888794 
	C833.233215,574.888794 773.989014,574.888794 714.249390,574.888794 
	C682.854919,743.349548 651.558044,911.286499 620.054077,1080.334961 
	C741.383545,1096.554321 852.878906,1071.276001 954.565613,1004.053040 
	C1056.469360,936.686646 1122.287842,842.845459 1155.885620,725.994995 
	C1115.663818,896.398743 1016.899048,1022.021423 864.196472,1106.382446 
	C707.680115,1183.867310 548.114746,1190.574219 385.143250,1126.928223 
M352.162415,704.846619 
	C353.762543,696.930298 355.453400,689.031067 356.946594,681.094604 
	C362.586945,651.116028 368.185913,621.129517 373.741028,591.135071 
	C374.686462,586.030212 375.340881,580.871460 376.193695,575.321472 
	C318.435059,575.321472 261.544464,575.321472 203.547089,575.321472 
	C198.501709,700.747437 234.910873,811.911743 314.253357,910.720093 
	C315.378601,903.817200 316.148499,898.358704 317.170624,892.947815 
	C322.405426,865.234680 327.741638,837.540771 332.970612,809.826538 
	C337.003967,788.449341 340.962982,767.057922 344.894196,745.661682 
	C347.339172,732.354370 349.670563,719.026245 352.162415,704.846619 
M550.999084,892.516235 
	C555.598206,870.927551 560.197266,849.338928 564.955811,827.001892 
	C559.136292,827.001892 553.831726,827.303284 548.579224,826.909912 
	C544.079590,826.572998 542.636047,828.423340 541.898560,832.613953 
	C539.443420,846.563416 536.578796,860.440796 533.871155,874.345825 
	C530.441162,860.330872 527.800171,846.289246 524.884155,832.305054 
	C524.488647,830.408508 522.832031,827.400208 521.559937,827.293945 
	C515.313110,826.772217 508.998962,827.057129 502.523193,827.057129 
	C495.795135,858.742859 489.174408,889.923218 482.364746,921.993286 
	C489.029266,921.993286 494.487061,921.854980 499.933502,922.044006 
	C503.306580,922.161072 504.470947,920.703186 505.070526,917.514343 
	C507.647980,903.806885 510.495453,890.150208 513.244568,876.475037 
	C513.582825,876.452820 513.921082,876.430603 514.259338,876.408386 
	C517.256470,891.476379 520.253662,906.544373 523.327515,921.997925 
	C529.247681,921.997925 534.737366,921.712036 540.180420,922.092957 
	C544.178894,922.372803 545.324890,920.420349 545.979004,917.097412 
	C547.539612,909.167908 549.280151,901.273743 550.999084,892.516235 
M621.427368,868.999023 
	C614.929932,869.001709 608.429199,868.897522 601.937683,869.094788 
	C600.595337,869.135620 598.380493,870.042297 598.114685,870.985718 
	C596.710632,875.969299 595.801331,881.092224 594.621216,886.632812 
	C598.641846,886.887024 601.726990,887.082031 604.892639,887.282166 
	C605.515930,893.991699 602.093140,898.812561 598.176575,902.991455 
	C595.935791,905.382385 592.598450,906.986816 588.661438,905.332031 
	C584.561401,903.608826 584.730896,900.303467 585.049988,896.997131 
	C585.525085,892.073242 585.890869,887.070251 587.090027,882.298584 
	C589.974915,870.819153 593.036926,859.365784 596.612305,848.087341 
	C598.044983,843.567932 603.703186,841.770508 608.845398,843.140442 
	C613.390747,844.351257 613.046509,848.072327 613.002808,851.600525 
	C612.988342,852.766479 613.111023,853.943542 612.992004,855.097046 
	C612.665527,858.258362 614.236450,859.122070 617.130310,859.030029 
	C621.790405,858.881714 626.460999,858.900085 631.122559,859.021973 
	C633.806580,859.092102 635.109619,858.242981 635.022827,855.339905 
	C634.878418,850.512878 635.158508,845.670654 634.945129,840.848755 
	C634.606873,833.204651 629.159241,827.252258 621.576172,825.952332 
	C618.976074,825.506653 616.339478,825.268066 613.745789,824.791809 
	C596.606506,821.644653 578.966980,829.245605 573.929138,847.566101 
	C569.214661,864.710938 565.268494,882.139832 562.349121,899.670959 
	C561.125732,907.017578 562.051147,915.641296 570.358765,920.048828 
	C579.729980,925.020447 589.424500,926.120361 599.315979,921.310059 
	C600.316406,920.823547 601.508301,920.317688 602.556580,920.414551 
	C606.915283,920.816956 611.252380,921.451599 615.598572,921.991760 
	C619.119751,922.429443 620.442322,920.779419 621.096497,917.335144 
	C623.034546,907.131104 625.429993,897.014709 627.570984,886.848206 
	C628.774719,881.132202 629.829285,875.384766 631.078735,868.999023 
	C627.673767,868.999023 625.036926,868.999023 621.427368,868.999023 
M449.594727,922.184814 
	C459.238586,918.162781 466.371674,911.345215 469.788330,901.569214 
	C473.099182,892.096130 475.889923,882.340271 477.758270,872.490295 
	C479.921570,861.085205 482.827454,849.593689 479.182343,837.765686 
	C477.079041,830.940735 472.852325,826.972107 466.048340,826.058167 
	C460.416016,825.301575 454.664825,824.878662 448.993378,825.078369 
	C436.653381,825.512695 427.564789,831.673096 422.278442,842.678284 
	C419.666473,848.115906 417.967682,854.096130 416.589508,860.002075 
	C413.107819,874.922363 408.179474,889.628845 408.996643,905.281494 
	C409.375092,912.530273 411.778900,918.341919 418.987640,921.561340 
	C428.894623,925.985779 438.797150,926.156189 449.594727,922.184814 
M525.955872,656.020935 
	C524.631653,657.306946 522.496338,658.390503 522.116333,659.912292 
	C519.841492,669.023254 517.892151,678.218933 516.010681,687.422424 
	C515.416809,690.327576 513.883423,691.789185 511.215271,692.973877 
	C509.501007,693.735107 508.026581,695.668823 507.115417,697.425049 
	C506.239807,699.112671 506.560577,701.400146 505.761017,703.152832 
	C504.470428,705.981995 505.847107,706.864868 508.065613,708.001648 
	C509.242828,708.604797 510.738983,710.413574 510.589264,711.463928 
	C509.917023,716.179688 508.668762,720.810974 507.698151,725.487183 
	C506.403748,731.723083 505.174072,737.972412 503.815033,744.720093 
	C506.280151,744.834167 508.071533,744.983826 509.863312,744.988770 
	C518.853271,745.013489 527.843506,744.968262 536.833374,745.008606 
	C548.545288,745.061218 557.422241,740.010498 562.144653,729.364502 
	C569.902466,711.875732 574.349731,693.442810 574.926453,674.266418 
	C575.270508,662.827820 568.231384,656.041931 556.842163,656.008301 
	C546.853271,655.978882 536.864319,656.005432 525.955872,656.020935 
M366.047821,873.572693 
	C366.372223,872.131042 366.620728,870.667297 367.033875,869.251587 
	C369.013977,862.465942 370.611847,855.519470 373.265259,849.004761 
	C374.274719,846.526306 377.478271,844.372803 380.170776,843.310242 
	C382.807068,842.269897 385.822968,842.937744 386.026001,847.139648 
	C386.212433,850.998108 385.424683,856.499207 387.553711,858.247498 
	C389.985992,860.244873 395.166290,858.909607 399.153107,858.993042 
	C400.650574,859.024353 402.242157,859.281067 403.620514,858.867432 
	C404.835968,858.502686 406.394684,857.573547 406.809753,856.507385 
	C412.713959,841.342651 405.679443,827.497925 389.775513,824.545288 
	C375.701111,821.932312 359.963013,827.913086 353.592743,842.097656 
	C344.298859,862.792297 339.042694,884.566711 339.973724,907.526367 
	C340.232971,913.918091 344.191711,920.039856 350.290771,921.902405 
	C366.020630,926.705872 381.130249,924.777893 392.162903,911.199341 
	C398.156952,903.822144 401.406586,895.333252 399.412201,885.005127 
	C394.203003,885.005127 389.233704,885.165771 384.281006,884.948120 
	C381.030579,884.805298 379.625275,886.078369 378.769165,889.181702 
	C377.632172,893.302979 376.376801,897.590576 374.113434,901.129456 
	C372.697205,903.343750 369.346832,905.513550 366.838959,905.542969 
	C363.515930,905.581909 361.402618,902.628357 362.011597,898.795471 
	C363.303223,890.666077 364.642059,882.544067 366.047821,873.572693 
M618.639648,744.999329 
	C621.136169,744.999390 623.632629,745.002991 626.129150,744.998779 
	C632.983459,744.987305 633.063049,744.985107 632.986206,738.351135 
	C632.685791,712.427856 632.278259,686.505676 632.059265,660.581848 
	C632.030762,657.204163 631.126221,655.752991 627.555847,655.946716 
	C623.075562,656.189880 618.495300,656.520447 614.096619,655.872986 
	C608.045715,654.982361 605.621460,658.052063 603.473022,662.947876 
	C594.907898,682.465698 586.053467,701.856506 577.334473,721.307007 
	C573.914551,728.936218 570.568970,736.598694 566.859070,744.994019 
	C573.479126,744.994019 579.270142,744.838501 585.046570,745.060486 
	C587.879639,745.169434 589.248901,743.991211 590.201904,741.546997 
	C592.061951,736.775879 594.091309,732.071045 596.033875,727.331909 
	C597.253784,724.355896 609.406494,722.284607 611.361145,724.854431 
	C611.971741,725.657166 611.942078,727.050293 611.964294,728.177917 
	C612.036560,731.838074 612.251526,735.522644 611.935547,739.156311 
	C611.547791,743.614807 612.982971,745.788391 618.639648,744.999329 
M646.145020,725.826782 
	C645.070251,732.018982 643.995422,738.211121 642.817261,744.998779 
	C648.347412,744.998779 652.839844,744.693787 657.270813,745.085083 
	C661.650757,745.471741 663.273682,743.748779 664.125366,739.570618 
	C668.925354,716.023132 674.007751,692.533264 678.955200,669.015625 
	C679.812378,664.941345 680.484253,660.828125 681.377014,656.001648 
	C675.480774,656.001648 670.674438,656.258484 665.910339,655.920593 
	C662.081299,655.649048 660.711182,657.299133 659.994080,660.770264 
	C655.565002,682.208984 650.987366,703.616943 646.145020,725.826782 
M438.039429,823.997925 
	C446.242401,824.675903 453.923706,823.796448 459.116272,816.394897 
	C461.478729,819.190918 463.172821,823.145142 465.506439,823.567749 
	C471.027252,824.567383 476.851959,823.888916 483.615784,823.888916 
	C479.786621,817.461121 476.617493,812.102661 473.403900,806.770996 
	C472.480255,805.238586 471.495178,802.554626 470.424072,802.496338 
	C464.344818,802.165405 456.882324,800.290649 452.429138,803.045227 
	C444.798126,807.765564 439.041412,815.515869 431.676483,822.806946 
	C434.434265,823.398560 435.821228,823.696167 438.039429,823.997925 
M606.144226,753.879944 
	C606.495178,751.722656 606.846191,749.565369 607.258179,747.033081 
	C601.485596,747.033081 596.512024,746.895996 591.556519,747.134216 
	C590.391235,747.190247 588.538025,748.315430 588.281799,749.286560 
	C587.051941,753.948364 586.261292,758.726074 585.207336,763.999878 
	C588.986450,763.999878 592.120361,764.000061 595.254272,763.999878 
	C604.633789,763.999146 604.633789,763.999084 606.144226,753.879944 
z"/>

<path fill="#FEFEFE" opacity="1.000000" stroke="none" 
	d="
M704.107117,886.243286 
	C701.994995,897.351257 700.038818,908.059998 697.754578,918.698303 
	C697.478699,919.983154 695.479248,921.745056 694.193054,921.820190 
	C688.404480,922.158325 682.585083,921.967651 676.125427,921.967651 
	C678.598328,910.035461 680.927063,898.644287 683.324097,887.267578 
	C687.201355,868.865417 691.206299,850.489563 694.957214,832.061829 
	C695.712097,828.353088 697.109192,826.568298 701.133240,826.933472 
	C704.768127,827.263306 708.481262,827.269775 712.114441,826.930908 
	C715.982910,826.570129 717.379089,828.344910 717.997314,831.819031 
	C720.277954,844.635010 722.695618,857.426819 725.125000,870.215759 
	C725.291260,871.091064 725.978333,871.867432 727.206970,874.138672 
	C728.659241,867.441162 729.885681,862.134583 730.950378,856.795837 
	C732.689758,848.074158 734.195801,839.302856 736.131958,830.626526 
	C736.443665,829.229919 738.410828,827.278931 739.722107,827.189575 
	C745.331238,826.807434 750.981384,827.026794 757.555847,827.026794 
	C756.160278,833.990967 754.924316,840.381653 753.594849,846.752869 
	C748.746765,869.987244 743.805237,893.202454 739.073425,916.460388 
	C738.436401,919.591553 737.406738,921.197754 733.992004,921.049316 
	C729.502747,920.854126 724.997620,920.938416 720.501465,921.020264 
	C717.781433,921.069702 716.424072,920.285583 715.892029,917.211182 
	C713.784363,905.034424 711.328857,892.917236 708.928345,880.792542 
	C708.630798,879.289551 707.890808,877.874207 706.862244,875.074524 
	C705.725403,879.602722 704.944580,882.712708 704.107117,886.243286 
z"/>

<path fill="#FEFEFE" opacity="1.000000" stroke="none" 
	d="
M786.237549,923.786377 
	C781.208801,923.593445 776.480286,923.846619 772.009521,922.892090 
	C759.964783,920.320618 754.624207,912.321167 756.048279,899.944031 
	C758.090881,882.191589 761.672668,864.812561 767.852356,847.976501 
	C773.362244,832.965027 784.238892,825.049622 800.170776,824.991699 
	C807.471130,824.965149 814.648682,824.735229 821.124878,829.386230 
	C827.269409,833.799072 828.180908,840.116821 828.883118,846.732483 
	C828.900208,846.893494 828.851013,847.063538 828.820923,847.227234 
	C826.658691,859.002808 826.658569,859.002686 814.278870,858.999207 
	C811.659912,858.998474 809.040955,858.999084 805.915527,858.999084 
	C806.358154,856.264832 806.929321,854.348877 806.921265,852.435425 
	C806.906555,848.942078 808.102478,844.708740 803.354919,843.145874 
	C797.434448,841.196838 791.951233,842.893188 789.786194,847.733154 
	C787.506897,852.828308 785.523743,858.138306 784.165039,863.543945 
	C781.994751,872.178589 780.375671,880.955994 778.680847,889.703491 
	C778.181396,892.281189 778.241943,894.964478 777.993103,897.594421 
	C777.675110,900.955444 778.081543,904.798218 781.575378,905.408081 
	C784.794556,905.969971 789.092834,905.300903 791.688599,903.451538 
	C797.071472,899.616455 798.352844,893.128113 799.775208,886.333252 
	C796.235168,886.113831 792.877686,885.905640 788.685120,885.645752 
	C789.740417,880.399170 790.601868,875.601624 791.759460,870.876648 
	C791.948486,870.105103 793.438416,869.144836 794.338318,869.133057 
	C803.970215,869.007263 813.604370,869.054871 824.171631,869.054871 
	C822.903381,875.360901 821.792297,881.069214 820.602539,886.761169 
	C818.409973,897.250916 816.301208,907.762024 813.806763,918.180298 
	C813.446228,919.686035 811.203491,921.698059 809.723633,921.793152 
	C805.819885,922.044006 801.823792,920.912354 797.926636,921.193359 
	C794.129395,921.467163 790.409241,922.808960 786.237549,923.786377 
z"/>

<path fill="#FEFEFE" opacity="1.000000" stroke="none" 
	d="
M872.914551,862.000000 
	C878.797302,862.847473 881.801514,861.413879 882.635193,855.139038 
	C883.738098,846.837280 886.046204,838.682678 888.111450,830.534546 
	C888.452698,829.188110 890.142761,827.273071 891.307800,827.200500 
	C896.919250,826.851318 902.564331,827.043396 909.496521,827.043396 
	C902.796448,858.684570 896.244446,889.626831 889.672058,920.664978 
	C882.665344,920.664978 876.082947,920.664978 868.799683,920.664978 
	C871.566895,907.384705 874.238647,894.562378 876.995300,881.333008 
	C870.272278,881.333008 864.024353,881.333008 857.512878,881.333008 
	C854.527039,894.780701 851.570251,908.097351 848.553589,921.683838 
	C841.837952,921.683838 835.254333,921.683838 827.889160,921.683838 
	C829.417358,914.295837 830.833191,907.277161 832.324280,900.274536 
	C837.200256,877.375366 842.197632,854.501343 846.897644,831.566223 
	C847.622498,828.028870 849.034546,826.835205 852.466125,826.956116 
	C857.760010,827.142822 863.065186,827.005249 868.824219,827.005249 
	C866.377808,838.806885 864.058838,849.993713 861.570007,862.000000 
	C865.868286,862.000000 869.154297,862.000000 872.914551,862.000000 
z"/>

<path fill="#FEFEFE" opacity="1.000000" stroke="none" 
	d="
M813.018677,748.138794 
	C811.976013,752.373474 810.794128,756.173401 810.049988,760.057190 
	C809.462646,763.122253 807.914001,764.157349 804.910583,764.038513 
	C800.454346,763.862305 795.985901,763.992981 790.979309,763.992981 
	C791.935730,759.145447 792.621582,754.951233 793.623108,750.833862 
	C794.346619,747.859436 793.487976,745.931152 790.632324,745.020630 
	C780.804688,741.887146 778.308838,732.813477 779.097900,724.897217 
	C780.724548,708.578003 784.158203,692.678589 789.777771,677.189697 
	C796.515808,658.617920 815.062561,649.297852 833.673279,655.745422 
	C842.529785,658.813721 847.179688,666.129822 845.919678,675.359253 
	C844.357666,686.800659 843.251648,698.354492 840.787292,709.605347 
	C839.045715,717.556458 835.914001,725.340820 832.409607,732.728455 
	C829.061890,739.785767 822.416321,743.533020 815.101196,745.965088 
	C814.313782,746.226807 813.740601,747.132874 813.018677,748.138794 
M821.940735,703.315857 
	C823.463745,695.902832 825.122009,688.513855 826.450073,681.066101 
	C827.071777,677.580017 826.628052,674.086548 823.054688,672.080750 
	C819.638977,670.163391 815.984009,670.338623 813.501831,673.240601 
	C811.000305,676.165100 808.482788,679.624878 807.562561,683.253479 
	C804.369019,695.845215 801.771729,708.592651 799.150940,721.322754 
	C798.189819,725.991394 800.837158,728.666016 805.623169,729.036072 
	C812.371216,729.558044 814.797119,727.765442 817.786804,719.923523 
	C819.706482,714.888245 820.505615,709.425842 821.940735,703.315857 
z"/>

<path fill="#FEFEFE" opacity="1.000000" stroke="none" 
	d="
M718.732727,744.997253 
	C713.962463,744.998169 709.658569,744.998169 704.379395,744.998169 
	C705.855347,737.890930 707.188965,731.365112 708.567749,724.848938 
	C713.036926,703.726624 717.593018,682.622192 721.926819,661.472168 
	C722.576721,658.300354 723.705322,656.820862 727.071960,656.956909 
	C731.871826,657.150757 736.685425,657.006226 742.614014,657.006226 
	C740.402222,667.744141 738.303711,677.932190 736.044006,688.902832 
	C741.625366,688.902832 746.886902,689.124146 752.099426,688.717773 
	C753.152832,688.635681 754.523315,686.301086 754.890259,684.795898 
	C756.762573,677.115662 758.417358,669.379883 760.013794,661.635864 
	C760.717712,658.221252 762.270386,656.610107 766.054138,656.917358 
	C770.500427,657.278381 774.998535,657.001953 780.567932,657.001953 
	C779.012390,664.360779 777.567078,671.174194 776.132324,677.989807 
	C771.754089,698.787964 767.283264,719.567627 763.098450,740.404724 
	C762.394226,743.911316 761.015564,745.191406 757.554199,745.043884 
	C752.914307,744.846130 748.259644,744.994995 742.485474,744.994995 
	C745.069153,732.269043 747.556213,720.019043 750.130798,707.337891 
	C743.912659,707.337891 738.330444,707.337891 732.310303,707.337891 
	C729.860107,718.317627 727.322021,729.202576 725.053467,740.143433 
	C724.337402,743.596741 723.043640,745.652710 718.732727,744.997253 
z"/>

<path fill="#FEFEFE" opacity="1.000000" stroke="none" 
	d="
M955.002563,843.999634 
	C949.883057,843.999634 945.260742,843.999634 940.523560,843.999634 
	C939.258179,850.346741 938.107971,856.115967 936.808716,862.632996 
	C946.000549,862.632996 954.702209,862.632996 964.416382,862.632996 
	C963.436584,868.356079 962.785889,873.322815 961.580688,878.151123 
	C961.356506,879.049072 958.915344,879.867737 957.474915,879.907410 
	C950.652344,880.095215 943.820557,880.086060 936.995239,879.963684 
	C934.268921,879.914795 932.588867,880.702454 932.051331,883.564697 
	C930.836548,890.033447 929.507568,896.480713 928.059265,903.771240 
	C938.171143,903.771240 947.998901,903.771240 958.721680,903.771240 
	C957.413574,909.657410 956.450989,914.630920 955.110474,919.500427 
	C954.829895,920.519897 953.163757,921.854370 952.125000,921.864197 
	C936.171570,922.014282 920.216248,921.968872 903.277710,921.968872 
	C910.015869,890.124329 916.619263,858.916870 923.293274,827.375854 
	C940.462219,827.375854 957.496399,827.375854 974.993896,827.375854 
	C973.922302,832.259705 973.163330,836.806580 971.813110,841.170593 
	C971.437073,842.386047 969.370728,843.734985 967.978271,843.856201 
	C963.845886,844.215759 959.662964,843.994080 955.002563,843.999634 
z"/>

<path fill="#FEFEFE" opacity="1.000000" stroke="none" 
	d="
M885.894470,723.747925 
	C890.558533,710.791565 890.558655,710.783875 904.051270,711.013794 
	C905.516296,711.038757 906.978699,711.215271 909.541260,711.401184 
	C908.272400,715.762573 907.336060,719.682312 905.997803,723.459656 
	C900.079346,740.164368 889.255249,747.690308 871.667725,746.937073 
	C859.521240,746.416931 850.313477,737.182007 852.487732,723.180298 
	C855.086426,706.445251 858.740417,690.122803 863.857605,674.033386 
	C868.674683,658.887390 885.620728,652.086853 898.388000,654.368958 
	C913.163879,657.010071 918.306824,665.603088 915.191101,680.928162 
	C914.898621,682.367065 914.809143,683.847229 914.546082,685.938538 
	C909.156250,685.938538 903.868652,686.072510 898.600952,685.809265 
	C897.702271,685.764404 896.451111,684.141602 896.141296,683.030640 
	C895.709229,681.481323 896.286255,679.666199 895.932312,678.075867 
	C895.410278,675.730347 894.448730,673.482727 893.674377,671.193359 
	C890.475830,672.476624 886.618774,673.054382 884.269531,675.247498 
	C882.050293,677.319153 880.856628,680.969788 880.184082,684.132690 
	C877.579102,696.383789 875.284180,708.703186 873.046143,721.028381 
	C872.342407,724.903931 873.077881,728.664917 877.582031,729.710815 
	C881.985962,730.733398 884.243103,727.736877 885.894470,723.747925 
z"/>

<path fill="#FEFEFE" opacity="1.000000" stroke="none" 
	d="
M950.234131,817.297241 
	C943.978333,826.374084 935.094788,821.967468 926.750122,822.036316 
	C928.749146,819.963989 930.675293,817.814392 932.766846,815.840088 
	C935.039185,813.695129 937.969849,812.071228 939.728882,809.592346 
	C944.805969,802.437683 951.729980,800.926453 959.762756,802.025146 
	C960.876221,802.177429 962.544373,802.146667 962.973938,802.823669 
	C966.987854,809.148804 970.787292,815.610046 975.211548,822.967773 
	C969.094727,822.967773 964.282471,823.300659 959.562561,822.786194 
	C957.923828,822.607544 956.620178,820.171509 954.965820,819.060791 
	C953.627686,818.162354 951.993286,817.705383 950.234131,817.297241 
z"/>

<path fill="#FEFEFE" opacity="1.000000" stroke="none" 
	d="
M915.975098,931.937744 
	C916.444702,929.596191 916.889404,927.676941 917.419556,925.388672 
	C923.617432,925.388672 929.828796,925.388672 936.664001,925.388672 
	C935.663574,930.709839 934.684387,935.918213 933.624390,941.556213 
	C927.282471,941.556213 920.943237,941.556213 914.068542,941.556213 
	C914.726257,938.341675 915.338196,935.350891 915.975098,931.937744 
z"/>

<path fill="#00477F" opacity="1.000000" stroke="none" 
	d="
M352.107666,705.277039 
	C349.670563,719.026245 347.339172,732.354370 344.894196,745.661682 
	C340.962982,767.057922 337.003967,788.449341 332.970612,809.826538 
	C327.741638,837.540771 322.405426,865.234680 317.170624,892.947815 
	C316.148499,898.358704 315.378601,903.817200 314.253357,910.720093 
	C234.910873,811.911743 198.501709,700.747437 203.547089,575.321472 
	C261.544464,575.321472 318.435059,575.321472 376.193695,575.321472 
	C375.340881,580.871460 374.686462,586.030212 373.741028,591.135071 
	C368.185913,621.129517 362.586945,651.116028 356.946594,681.094604 
	C355.453400,689.031067 353.762543,696.930298 352.107666,705.277039 
z"/>

<path fill="#00477F" opacity="1.000000" stroke="none" 
	d="
M550.973511,892.940796 
	C549.280151,901.273743 547.539612,909.167908 545.979004,917.097412 
	C545.324890,920.420349 544.178894,922.372803 540.180420,922.092957 
	C534.737366,921.712036 529.247681,921.997925 523.327515,921.997925 
	C520.253662,906.544373 517.256470,891.476379 514.259338,876.408386 
	C513.921082,876.430603 513.582825,876.452820 513.244568,876.475037 
	C510.495453,890.150208 507.647980,903.806885 505.070526,917.514343 
	C504.470947,920.703186 503.306580,922.161072 499.933502,922.044006 
	C494.487061,921.854980 489.029266,921.993286 482.364746,921.993286 
	C489.174408,889.923218 495.795135,858.742859 502.523193,827.057129 
	C508.998962,827.057129 515.313110,826.772217 521.559937,827.293945 
	C522.832031,827.400208 524.488647,830.408508 524.884155,832.305054 
	C527.800171,846.289246 530.441162,860.330872 533.871155,874.345825 
	C536.578796,860.440796 539.443420,846.563416 541.898560,832.613953 
	C542.636047,828.423340 544.079590,826.572998 548.579224,826.909912 
	C553.831726,827.303284 559.136292,827.001892 564.955811,827.001892 
	C560.197266,849.338928 555.598206,870.927551 550.973511,892.940796 
z"/>

<path fill="#00477F" opacity="1.000000" stroke="none" 
	d="
M621.913696,868.999023 
	C625.036926,868.999023 627.673767,868.999023 631.078735,868.999023 
	C629.829285,875.384766 628.774719,881.132202 627.570984,886.848206 
	C625.429993,897.014709 623.034546,907.131104 621.096497,917.335144 
	C620.442322,920.779419 619.119751,922.429443 615.598572,921.991760 
	C611.252380,921.451599 606.915283,920.816956 602.556580,920.414551 
	C601.508301,920.317688 600.316406,920.823547 599.315979,921.310059 
	C589.424500,926.120361 579.729980,925.020447 570.358765,920.048828 
	C562.051147,915.641296 561.125732,907.017578 562.349121,899.670959 
	C565.268494,882.139832 569.214661,864.710938 573.929138,847.566101 
	C578.966980,829.245605 596.606506,821.644653 613.745789,824.791809 
	C616.339478,825.268066 618.976074,825.506653 621.576172,825.952332 
	C629.159241,827.252258 634.606873,833.204651 634.945129,840.848755 
	C635.158508,845.670654 634.878418,850.512878 635.022827,855.339905 
	C635.109619,858.242981 633.806580,859.092102 631.122559,859.021973 
	C626.460999,858.900085 621.790405,858.881714 617.130310,859.030029 
	C614.236450,859.122070 612.665527,858.258362 612.992004,855.097046 
	C613.111023,853.943542 612.988342,852.766479 613.002808,851.600525 
	C613.046509,848.072327 613.390747,844.351257 608.845398,843.140442 
	C603.703186,841.770508 598.044983,843.567932 596.612305,848.087341 
	C593.036926,859.365784 589.974915,870.819153 587.090027,882.298584 
	C585.890869,887.070251 585.525085,892.073242 585.049988,896.997131 
	C584.730896,900.303467 584.561401,903.608826 588.661438,905.332031 
	C592.598450,906.986816 595.935791,905.382385 598.176575,902.991455 
	C602.093140,898.812561 605.515930,893.991699 604.892639,887.282166 
	C601.726990,887.082031 598.641846,886.887024 594.621216,886.632812 
	C595.801331,881.092224 596.710632,875.969299 598.114685,870.985718 
	C598.380493,870.042297 600.595337,869.135620 601.937683,869.094788 
	C608.429199,868.897522 614.929932,869.001709 621.913696,868.999023 
z"/>

<path fill="#00477F" opacity="1.000000" stroke="none" 
	d="
M449.246765,922.373779 
	C438.797150,926.156189 428.894623,925.985779 418.987640,921.561340 
	C411.778900,918.341919 409.375092,912.530273 408.996643,905.281494 
	C408.179474,889.628845 413.107819,874.922363 416.589508,860.002075 
	C417.967682,854.096130 419.666473,848.115906 422.278442,842.678284 
	C427.564789,831.673096 436.653381,825.512695 448.993378,825.078369 
	C454.664825,824.878662 460.416016,825.301575 466.048340,826.058167 
	C472.852325,826.972107 477.079041,830.940735 479.182343,837.765686 
	C482.827454,849.593689 479.921570,861.085205 477.758270,872.490295 
	C475.889923,882.340271 473.099182,892.096130 469.788330,901.569214 
	C466.371674,911.345215 459.238586,918.162781 449.246765,922.373779 
M458.959076,850.968933 
	C457.767792,847.122925 456.338715,842.622437 451.895111,842.495972 
	C447.523193,842.371643 443.869995,845.271790 442.105499,849.730652 
	C442.044434,849.884949 441.982056,850.040649 441.942047,850.201172 
	C439.638763,859.438232 437.270020,868.659790 435.061096,877.919373 
	C433.650238,883.833740 432.481201,889.805603 431.193878,895.749573 
	C430.333344,899.723206 431.182007,903.528687 434.948730,905.019775 
	C437.230652,905.923096 441.096466,905.579407 442.964874,904.133911 
	C445.837128,901.911743 448.796051,898.554443 449.632233,895.164307 
	C453.171082,880.815857 455.939301,866.277344 458.959076,850.968933 
z"/>

<path fill="#00477F" opacity="1.000000" stroke="none" 
	d="
M526.415649,656.014099 
	C536.864319,656.005432 546.853271,655.978882 556.842163,656.008301 
	C568.231384,656.041931 575.270508,662.827820 574.926453,674.266418 
	C574.349731,693.442810 569.902466,711.875732 562.144653,729.364502 
	C557.422241,740.010498 548.545288,745.061218 536.833374,745.008606 
	C527.843506,744.968262 518.853271,745.013489 509.863312,744.988770 
	C508.071533,744.983826 506.280151,744.834167 503.815033,744.720093 
	C505.174072,737.972412 506.403748,731.723083 507.698151,725.487183 
	C508.668762,720.810974 509.917023,716.179688 510.589264,711.463928 
	C510.738983,710.413574 509.242828,708.604797 508.065613,708.001648 
	C505.847107,706.864868 504.470428,705.981995 505.761017,703.152832 
	C506.560577,701.400146 506.239807,699.112671 507.115417,697.425049 
	C508.026581,695.668823 509.501007,693.735107 511.215271,692.973877 
	C513.883423,691.789185 515.416809,690.327576 516.010681,687.422424 
	C517.892151,678.218933 519.841492,669.023254 522.116333,659.912292 
	C522.496338,658.390503 524.631653,657.306946 526.415649,656.014099 
M531.823303,727.983887 
	C540.659973,727.895325 543.965515,725.312256 546.174255,716.828430 
	C547.338623,712.356262 548.684509,707.927185 549.714294,703.425110 
	C551.221985,696.833557 553.024048,690.250427 553.773499,683.559875 
	C554.635803,675.862122 553.798096,673.455139 545.053467,672.955811 
	C541.231567,672.737549 538.971924,673.789001 538.824707,677.967102 
	C538.779175,679.256958 538.211243,680.525940 537.902466,681.809265 
	C535.612305,691.327332 535.613892,691.327698 544.953247,693.843506 
	C544.306152,696.355347 543.460571,698.847900 543.048340,701.410217 
	C542.302246,706.047974 539.793518,708.077759 535.075989,708.170837 
	C533.822571,708.195618 531.871155,709.902466 531.506531,711.194397 
	C530.256775,715.622681 529.408569,720.188232 528.798950,724.753784 
	C528.671753,725.706116 530.218994,726.881958 531.823303,727.983887 
z"/>

<path fill="#00477F" opacity="1.000000" stroke="none" 
	d="
M366.004639,873.995850 
	C364.642059,882.544067 363.303223,890.666077 362.011597,898.795471 
	C361.402618,902.628357 363.515930,905.581909 366.838959,905.542969 
	C369.346832,905.513550 372.697205,903.343750 374.113434,901.129456 
	C376.376801,897.590576 377.632172,893.302979 378.769165,889.181702 
	C379.625275,886.078369 381.030579,884.805298 384.281006,884.948120 
	C389.233704,885.165771 394.203003,885.005127 399.412201,885.005127 
	C401.406586,895.333252 398.156952,903.822144 392.162903,911.199341 
	C381.130249,924.777893 366.020630,926.705872 350.290771,921.902405 
	C344.191711,920.039856 340.232971,913.918091 339.973724,907.526367 
	C339.042694,884.566711 344.298859,862.792297 353.592743,842.097656 
	C359.963013,827.913086 375.701111,821.932312 389.775513,824.545288 
	C405.679443,827.497925 412.713959,841.342651 406.809753,856.507385 
	C406.394684,857.573547 404.835968,858.502686 403.620514,858.867432 
	C402.242157,859.281067 400.650574,859.024353 399.153107,858.993042 
	C395.166290,858.909607 389.985992,860.244873 387.553711,858.247498 
	C385.424683,856.499207 386.212433,850.998108 386.026001,847.139648 
	C385.822968,842.937744 382.807068,842.269897 380.170776,843.310242 
	C377.478271,844.372803 374.274719,846.526306 373.265259,849.004761 
	C370.611847,855.519470 369.013977,862.465942 367.033875,869.251587 
	C366.620728,870.667297 366.372223,872.131042 366.004639,873.995850 
z"/>

<path fill="#00477F" opacity="1.000000" stroke="none" 
	d="
M618.162903,744.998901 
	C612.982971,745.788391 611.547791,743.614807 611.935547,739.156311 
	C612.251526,735.522644 612.036560,731.838074 611.964294,728.177917 
	C611.942078,727.050293 611.971741,725.657166 611.361145,724.854431 
	C609.406494,722.284607 597.253784,724.355896 596.033875,727.331909 
	C594.091309,732.071045 592.061951,736.775879 590.201904,741.546997 
	C589.248901,743.991211 587.879639,745.169434 585.046570,745.060486 
	C579.270142,744.838501 573.479126,744.994019 566.859070,744.994019 
	C570.568970,736.598694 573.914551,728.936218 577.334473,721.307007 
	C586.053467,701.856506 594.907898,682.465698 603.473022,662.947876 
	C605.621460,658.052063 608.045715,654.982361 614.096619,655.872986 
	C618.495300,656.520447 623.075562,656.189880 627.555847,655.946716 
	C631.126221,655.752991 632.030762,657.204163 632.059265,660.581848 
	C632.278259,686.505676 632.685791,712.427856 632.986206,738.351135 
	C633.063049,744.985107 632.983459,744.987305 626.129150,744.998779 
	C623.632629,745.002991 621.136169,744.999390 618.162903,744.998901 
M610.195496,692.446350 
	C608.520081,696.693420 606.844727,700.940491 605.013916,705.581421 
	C607.516479,705.581421 609.510010,705.581421 611.950623,705.581421 
	C611.950623,700.752014 611.950623,696.310303 611.950623,691.868530 
	C611.486145,691.903503 611.021606,691.938477 610.195496,692.446350 
z"/>

<path fill="#00477F" opacity="1.000000" stroke="none" 
	d="
M646.302063,725.430969 
	C650.987366,703.616943 655.565002,682.208984 659.994080,660.770264 
	C660.711182,657.299133 662.081299,655.649048 665.910339,655.920593 
	C670.674438,656.258484 675.480774,656.001648 681.377014,656.001648 
	C680.484253,660.828125 679.812378,664.941345 678.955200,669.015625 
	C674.007751,692.533264 668.925354,716.023132 664.125366,739.570618 
	C663.273682,743.748779 661.650757,745.471741 657.270813,745.085083 
	C652.839844,744.693787 648.347412,744.998779 642.817261,744.998779 
	C643.995422,738.211121 645.070251,732.018982 646.302063,725.430969 
z"/>

<path fill="#00477F" opacity="1.000000" stroke="none" 
	d="
M437.623810,823.995850 
	C435.821228,823.696167 434.434265,823.398560 431.676483,822.806946 
	C439.041412,815.515869 444.798126,807.765564 452.429138,803.045227 
	C456.882324,800.290649 464.344818,802.165405 470.424072,802.496338 
	C471.495178,802.554626 472.480255,805.238586 473.403900,806.770996 
	C476.617493,812.102661 479.786621,817.461121 483.615784,823.888916 
	C476.851959,823.888916 471.027252,824.567383 465.506439,823.567749 
	C463.172821,823.145142 461.478729,819.190918 459.116272,816.394897 
	C453.923706,823.796448 446.242401,824.675903 437.623810,823.995850 
z"/>

<path fill="#00487F" opacity="1.000000" stroke="none" 
	d="
M606.092651,754.293579 
	C604.633789,763.999084 604.633789,763.999146 595.254272,763.999878 
	C592.120361,764.000061 588.986450,763.999878 585.207336,763.999878 
	C586.261292,758.726074 587.051941,753.948364 588.281799,749.286560 
	C588.538025,748.315430 590.391235,747.190247 591.556519,747.134216 
	C596.512024,746.895996 601.485596,747.033081 607.258179,747.033081 
	C606.846191,749.565369 606.495178,751.722656 606.092651,754.293579 
z"/>

<path fill="#00477F" opacity="1.000000" stroke="none" 
	d="
M821.873901,703.735352 
	C820.505615,709.425842 819.706482,714.888245 817.786804,719.923523 
	C814.797119,727.765442 812.371216,729.558044 805.623169,729.036072 
	C800.837158,728.666016 798.189819,725.991394 799.150940,721.322754 
	C801.771729,708.592651 804.369019,695.845215 807.562561,683.253479 
	C808.482788,679.624878 811.000305,676.165100 813.501831,673.240601 
	C815.984009,670.338623 819.638977,670.163391 823.054688,672.080750 
	C826.628052,674.086548 827.071777,677.580017 826.450073,681.066101 
	C825.122009,688.513855 823.463745,695.902832 821.873901,703.735352 
z"/>

<path fill="#FEFEFE" opacity="1.000000" stroke="none" 
	d="
M458.974121,851.388611 
	C455.939301,866.277344 453.171082,880.815857 449.632233,895.164307 
	C448.796051,898.554443 445.837128,901.911743 442.964874,904.133911 
	C441.096466,905.579407 437.230652,905.923096 434.948730,905.019775 
	C431.182007,903.528687 430.333344,899.723206 431.193878,895.749573 
	C432.481201,889.805603 433.650238,883.833740 435.061096,877.919373 
	C437.270020,868.659790 439.638763,859.438232 441.942047,850.201172 
	C441.982056,850.040649 442.044434,849.884949 442.105499,849.730652 
	C443.869995,845.271790 447.523193,842.371643 451.895111,842.495972 
	C456.338715,842.622437 457.767792,847.122925 458.974121,851.388611 
z"/>

<path fill="#FEFEFE" opacity="1.000000" stroke="none" 
	d="
M531.408936,727.969360 
	C530.218994,726.881958 528.671753,725.706116 528.798950,724.753784 
	C529.408569,720.188232 530.256775,715.622681 531.506531,711.194397 
	C531.871155,709.902466 533.822571,708.195618 535.075989,708.170837 
	C539.793518,708.077759 542.302246,706.047974 543.048340,701.410217 
	C543.460571,698.847900 544.306152,696.355347 544.953247,693.843506 
	C535.613892,691.327698 535.612305,691.327332 537.902466,681.809265 
	C538.211243,680.525940 538.779175,679.256958 538.824707,677.967102 
	C538.971924,673.789001 541.231567,672.737549 545.053467,672.955811 
	C553.798096,673.455139 554.635803,675.862122 553.773499,683.559875 
	C553.024048,690.250427 551.221985,696.833557 549.714294,703.425110 
	C548.684509,707.927185 547.338623,712.356262 546.174255,716.828430 
	C543.965515,725.312256 540.659973,727.895325 531.408936,727.969360 
z"/>

<path fill="#FEFEFE" opacity="1.000000" stroke="none" 
	d="
M610.376343,692.209900 
	C611.021606,691.938477 611.486145,691.903503 611.950623,691.868530 
	C611.950623,696.310303 611.950623,700.752014 611.950623,705.581421 
	C609.510010,705.581421 607.516479,705.581421 605.013916,705.581421 
	C606.844727,700.940491 608.520081,696.693420 610.376343,692.209900 
z"/>

</svg>